<svg width="66" height="66" viewBox="0 0 66 66" fill="none" xmlns="http://www.w3.org/2000/svg">
<path d="M38.5 46.75L46.75 38.5L38.5 30.25M27.5 19.25L19.25 27.5L27.5 35.75M21.45 57.75H44.55C49.1704 57.75 51.4806 57.75 53.2454 56.8508C54.7978 56.0598 56.0598 54.7978 56.8508 53.2454C57.75 51.4806 57.75 49.1704 57.75 44.55V21.45C57.75 16.8296 57.75 14.5194 56.8508 12.7546C56.0598 11.2022 54.7978 9.94015 53.2454 9.1492C51.4806 8.25 49.1704 8.25 44.55 8.25H21.45C16.8296 8.25 14.5194 8.25 12.7546 9.1492C11.2022 9.94015 9.94015 11.2022 9.1492 12.7546C8.25 14.5194 8.25 16.8296 8.25 21.45V44.55C8.25 49.1704 8.25 51.4806 9.1492 53.2454C9.94015 54.7978 11.2022 56.0598 12.7546 56.8508C14.5194 57.75 16.8296 57.75 21.45 57.75Z" stroke="#7300E9" stroke-width="3" stroke-linecap="round" stroke-linejoin="round"/>
</svg>
