<svg width="66" height="66" viewBox="0 0 66 66" fill="none" xmlns="http://www.w3.org/2000/svg">
<path d="M48.7997 43.9999C50.9745 40.8819 52.25 37.0899 52.25 33C52.25 31.5841 52.0971 30.2038 51.807 28.8749M17.2004 44C15.0255 40.882 13.75 37.0899 13.75 33C13.75 22.3685 22.3685 13.75 33 13.75C34.1609 13.75 35.2977 13.8528 36.402 14.0497M45.3747 20.625L32.9997 33M60.5 33C60.5 48.1878 48.1878 60.5 33 60.5C17.8122 60.5 5.5 48.1878 5.5 33C5.5 17.8122 17.8122 5.5 33 5.5C48.1878 5.5 60.5 17.8122 60.5 33ZM35.75 33C35.75 34.5188 34.5188 35.75 33 35.75C31.4812 35.75 30.25 34.5188 30.25 33C30.25 31.4812 31.4812 30.25 33 30.25C34.5188 30.25 35.75 31.4812 35.75 33Z" stroke="#7300E9" stroke-width="3" stroke-linecap="round" stroke-linejoin="round"/>
</svg>
