<svg width="66" height="66" viewBox="0 0 66 66" fill="none" xmlns="http://www.w3.org/2000/svg">
<path d="M44 49.5L49.5 55L60.5 44M33 41.25H22C16.8746 41.25 14.312 41.25 12.2905 42.0873C9.59517 43.2038 7.45376 45.3452 6.33733 48.0405C5.5 50.062 5.5 52.6246 5.5 57.75M42.625 9.04959C46.6563 10.6814 49.5 14.6336 49.5 19.25C49.5 23.8664 46.6563 27.8186 42.625 29.4504M37.125 19.25C37.125 25.3251 32.2001 30.25 26.125 30.25C20.0499 30.25 15.125 25.3251 15.125 19.25C15.125 13.1749 20.0499 8.25 26.125 8.25C32.2001 8.25 37.125 13.1749 37.125 19.25Z" stroke="#7300E9" stroke-width="3" stroke-linecap="round" stroke-linejoin="round"/>
</svg>
